<svg width="21" height="22" viewBox="0 0 21 22" fill="none" xmlns="http://www.w3.org/2000/svg">
<mask id="mask0_1227_1754" style="mask-type:luminance" maskUnits="userSpaceOnUse" x="0" y="0" width="21" height="22">
<path d="M16.9398 9.50781L19.3898 14.0078L16.9398 14.5078V17.5078H15.4698L12.5298 17.0078L12.0398 20.5078H4.68977L3.70977 15.3173C2.20057 13.8593 1.25977 11.7958 1.25977 9.50781C1.25977 5.08931 4.76964 1.50781 9.09977 1.50781C13.4299 1.50781 16.9398 5.08931 16.9398 9.50781Z" fill="white" stroke="white" stroke-width="2" stroke-linecap="round" stroke-linejoin="round"/>
<path d="M6.64941 8.50781C6.64941 8.01336 6.7931 7.53001 7.06231 7.11889C7.33152 6.70777 7.71416 6.38733 8.16184 6.19811C8.60952 6.0089 9.10213 5.95939 9.57739 6.05585C10.0526 6.15231 10.4892 6.39042 10.8318 6.74005C11.1745 7.08968 11.4078 7.53514 11.5023 8.02009C11.5969 8.50504 11.5484 9.00771 11.3629 9.46452C11.1775 9.92134 10.8635 10.3118 10.4606 10.5865C10.0577 10.8612 9.58398 11.0078 9.09941 11.0078V12.5078M9.09941 15.5078V16.0078" stroke="black" stroke-width="2" stroke-linecap="round" stroke-linejoin="round"/>
</mask>
<g mask="url(#mask0_1227_1754)">
<path d="M-1.68066 -0.992188H21.8393V23.0078H-1.68066V-0.992188Z" fill="#8A92A6"/>
</g>
</svg>
