<svg width="26" height="20" viewBox="0 0 26 20" fill="none" xmlns="http://www.w3.org/2000/svg">
<g clip-path="url(#clip0_1227_1740)">
<path d="M5.57143 12.7224C5.57143 12.2205 5.39007 11.792 5.02734 11.4369C4.66462 11.0818 4.22693 10.9042 3.71429 10.9042C3.20164 10.9042 2.76395 11.0818 2.40123 11.4369C2.0385 11.792 1.85714 12.2205 1.85714 12.7224C1.85714 13.2243 2.0385 13.6528 2.40123 14.0079C2.76395 14.363 3.20164 14.5406 3.71429 14.5406C4.22693 14.5406 4.66462 14.363 5.02734 14.0079C5.39007 13.6528 5.57143 13.2243 5.57143 12.7224ZM8.35714 6.35875C8.35714 5.85686 8.17578 5.42836 7.81306 5.07324C7.45033 4.71813 7.01265 4.54057 6.5 4.54057C5.98735 4.54057 5.54966 4.71813 5.18694 5.07324C4.82422 5.42836 4.64286 5.85686 4.64286 6.35875C4.64286 6.86065 4.82422 7.28915 5.18694 7.64427C5.54966 7.99938 5.98735 8.17694 6.5 8.17694C7.01265 8.17694 7.45033 7.99938 7.81306 7.64427C8.17578 7.28915 8.35714 6.86065 8.35714 6.35875ZM14.567 13.1911L16.0324 7.765C16.0904 7.51879 16.0541 7.28915 15.9235 7.07608C15.793 6.86302 15.6068 6.72334 15.365 6.65705C15.1231 6.59076 14.891 6.62154 14.6685 6.74938C14.4461 6.87722 14.301 7.06425 14.2333 7.31046L12.7679 12.7366C12.1875 12.7839 11.67 12.9899 11.2154 13.3545C10.7608 13.7191 10.4561 14.1855 10.3013 14.7536C10.1079 15.4828 10.2046 16.1741 10.5915 16.8275C10.9784 17.4809 11.5443 17.9023 12.2891 18.0917C13.0339 18.2811 13.74 18.1864 14.4074 17.8076C15.0748 17.4288 15.5052 16.8749 15.6987 16.1457C15.8534 15.5775 15.8244 15.0235 15.6116 14.4838C15.3988 13.944 15.0506 13.5131 14.567 13.1911ZM24.1429 12.7224C24.1429 12.2205 23.9615 11.792 23.5988 11.4369C23.236 11.0818 22.7984 10.9042 22.2857 10.9042C21.7731 10.9042 21.3354 11.0818 20.9727 11.4369C20.6099 11.792 20.4286 12.2205 20.4286 12.7224C20.4286 13.2243 20.6099 13.6528 20.9727 14.0079C21.3354 14.363 21.7731 14.5406 22.2857 14.5406C22.7984 14.5406 23.236 14.363 23.5988 14.0079C23.9615 13.6528 24.1429 13.2243 24.1429 12.7224ZM14.8571 3.63148C14.8571 3.12959 14.6758 2.70108 14.3131 2.34597C13.9503 1.99086 13.5126 1.8133 13 1.8133C12.4874 1.8133 12.0497 1.99086 11.6869 2.34597C11.3242 2.70108 11.1429 3.12959 11.1429 3.63148C11.1429 4.13337 11.3242 4.56188 11.6869 4.91699C12.0497 5.27211 12.4874 5.44966 13 5.44966C13.5126 5.44966 13.9503 5.27211 14.3131 4.91699C14.6758 4.56188 14.8571 4.13337 14.8571 3.63148ZM21.3571 6.35875C21.3571 5.85686 21.1758 5.42836 20.8131 5.07324C20.4503 4.71813 20.0126 4.54057 19.5 4.54057C18.9874 4.54057 18.5497 4.71813 18.1869 5.07324C17.8242 5.42836 17.6429 5.85686 17.6429 6.35875C17.6429 6.86065 17.8242 7.28915 18.1869 7.64427C18.5497 7.99938 18.9874 8.17694 19.5 8.17694C20.0126 8.17694 20.4503 7.99938 20.8131 7.64427C21.1758 7.28915 21.3571 6.86065 21.3571 6.35875ZM26 12.7224C26 15.194 25.3181 17.4809 23.9542 19.5832C23.7705 19.8578 23.5093 19.9951 23.1708 19.9951H2.82924C2.4907 19.9951 2.22954 19.8578 2.04576 19.5832C0.68192 17.4904 0 15.2035 0 12.7224C0 10.9989 0.343378 9.35118 1.03013 7.77921C1.71689 6.20724 2.64062 4.85307 3.80134 3.71671C4.96205 2.58034 6.34524 1.67599 7.95089 1.00364C9.55655 0.331291 11.2396 -0.00488281 13 -0.00488281C14.7604 -0.00488281 16.4435 0.331291 18.0491 1.00364C19.6548 1.67599 21.0379 2.58034 22.1987 3.71671C23.3594 4.85307 24.2831 6.20724 24.9699 7.77921C25.6566 9.35118 26 10.9989 26 12.7224Z" fill="#8A92A6"/>
</g>
<defs>
<clipPath id="clip0_1227_1740">
<rect width="26" height="20" fill="white" transform="translate(0 -0.00488281)"/>
</clipPath>
</defs>
</svg>
