<svg width="20" height="21" viewBox="0 0 20 21" fill="none" xmlns="http://www.w3.org/2000/svg">
<path d="M8.0138 5.03482L8.0028 5.03582C6.33771 5.27594 4.81479 6.10769 3.7128 7.37882C3.08423 8.10029 2.61095 8.94345 2.32243 9.8558C2.03391 10.7681 1.93634 11.7301 2.0358 12.6818C2.2086 14.3827 2.99788 15.9615 4.25474 17.1205C5.5116 18.2794 7.14913 18.9383 8.85841 18.9729C10.5677 19.0074 12.2305 18.4153 13.5332 17.3081C14.8359 16.2009 15.6884 14.6553 15.9298 12.9628V12.9528C15.9513 12.8034 15.968 12.6533 15.9798 12.5028C15.9849 12.4342 15.9758 12.3653 15.953 12.3003C15.9302 12.2354 15.8943 12.1759 15.8474 12.1255C15.8006 12.0751 15.7439 12.0349 15.6808 12.0074C15.6177 11.9799 15.5496 11.9658 15.4808 11.9658H10.4998C10.3028 11.9658 10.1078 11.927 9.92577 11.8516C9.74378 11.7763 9.57842 11.6658 9.43914 11.5265C9.29985 11.3872 9.18936 11.2218 9.11398 11.0398C9.0386 10.8579 8.9998 10.6628 8.9998 10.4658V5.48482C8.99986 5.41592 8.98568 5.34775 8.95815 5.28459C8.93062 5.22143 8.89033 5.16464 8.83981 5.11778C8.7893 5.07093 8.72964 5.03502 8.66459 5.01231C8.59954 4.9896 8.5305 4.98058 8.4618 4.98582C8.31113 4.99782 8.1618 5.01415 8.0138 5.03482ZM17.9988 10.1018C17.9888 10.5998 17.5588 10.9658 17.0618 10.9658H10.9998C10.7346 10.9658 10.4802 10.8605 10.2927 10.6729C10.1052 10.4854 9.9998 10.231 9.9998 9.96582V3.90382C9.9998 3.40582 10.3658 2.97682 10.8638 2.96682L10.9998 2.96582C11.9305 2.96578 12.8519 3.15134 13.7101 3.51166C14.5682 3.87197 15.3459 4.39981 15.9976 5.06428C16.6493 5.72875 17.162 6.51651 17.5056 7.38148C17.8492 8.24646 18.0169 9.17127 17.9988 10.1018Z" fill="#8A92A6"/>
</svg>
