<svg width="16" height="27" viewBox="0 0 16 27" fill="none" xmlns="http://www.w3.org/2000/svg">
<path d="M5.68501 18.4571L5.68343 18.4522L5.38486 18.3515C3.96485 17.8325 2.71902 16.9023 1.79572 15.6719C1.04911 14.6777 0.536101 13.5177 0.297156 12.2834C0.0582098 11.0491 0.0998645 9.77425 0.418834 8.55945C0.737803 7.34466 1.32536 6.22311 2.13517 5.28328C2.94497 4.34346 3.95487 3.61105 5.0852 3.14385C6.21553 2.67664 7.43538 2.48741 8.64853 2.59108C9.86168 2.69475 11.0349 3.08849 12.0758 3.74123C13.1166 4.39397 13.9965 5.28787 14.6462 6.35242C15.2958 7.41696 15.6973 8.62303 15.8191 9.8755C15.8616 10.3224 15.5049 10.6864 15.0711 10.6864C14.6374 10.6864 14.2901 10.3207 14.2383 9.8755C14.098 8.72635 13.6634 7.63682 12.9793 6.71966C12.2953 5.8025 11.3867 5.09101 10.3475 4.65882C9.30828 4.22663 8.1763 4.08944 7.06863 4.26144C5.96097 4.43344 4.91788 4.90838 4.04727 5.63713C3.17667 6.36587 2.51019 7.32194 2.11679 8.40641C1.72339 9.49089 1.61736 10.6644 1.80968 11.8054C2.002 12.9465 2.48568 14.0137 3.21066 14.8966C3.93565 15.7795 4.87561 16.446 5.93329 16.8272C6.20008 16.3241 6.63 15.9343 7.14735 15.7267C7.66469 15.5191 8.23629 15.5069 8.76148 15.6922C9.28668 15.8776 9.7318 16.2486 10.0185 16.74C10.3051 17.2313 10.4149 17.8115 10.3286 18.3784C10.2422 18.9453 9.96525 19.4624 9.54639 19.8389C9.12753 20.2153 8.59367 20.4269 8.0388 20.4363C7.48394 20.4457 6.94366 20.2523 6.51309 19.8903C6.08252 19.5283 5.78928 19.0208 5.68501 18.4571ZM4.43886 19.7165C2.89982 19.0667 1.55426 18.0077 0.538578 16.6469C0.280417 17.0472 0.142629 17.5177 0.142578 17.9989V18.8114C0.142578 22.0142 3.06543 25.3114 7.99972 25.3114C12.934 25.3114 15.8569 22.0142 15.8569 18.8114V17.9989C15.8569 17.3524 15.6085 16.7324 15.1665 16.2753C14.7244 15.8182 14.1249 15.5614 13.4997 15.5614H11.1426C11.4722 16.0165 11.7057 16.5382 11.828 17.0926C11.9503 17.647 11.9588 18.2218 11.8527 18.7797C11.7467 19.3377 11.5285 19.8664 11.2124 20.3317C10.8963 20.797 10.4893 21.1885 10.0176 21.4808C9.54594 21.7732 9.02019 21.9599 8.47436 22.0288C7.92852 22.0978 7.37477 22.0475 6.84892 21.8812C6.32307 21.7149 5.83684 21.4363 5.42168 21.0634C5.00653 20.6905 4.6717 20.2316 4.43886 19.7165ZM12.714 10.6864C12.714 9.20112 12.0713 7.87024 11.0577 6.9765C10.5628 6.54302 9.98679 6.21981 9.3656 6.02706C8.74441 5.83431 8.09144 5.77618 7.44753 5.8563C6.80362 5.93642 6.18263 6.15307 5.62338 6.49269C5.06414 6.83232 4.57867 7.28762 4.19736 7.83011C3.81604 8.37261 3.54706 8.99063 3.40726 9.64553C3.26746 10.3004 3.25983 10.9781 3.38486 11.6362C3.50989 12.2943 3.76488 12.9186 4.13389 13.4701C4.5029 14.0216 4.97798 14.4885 5.52944 14.8415C6.22819 14.2557 7.10019 13.9356 7.99972 13.9347C8.89887 13.9347 9.77083 14.2536 10.47 14.8382C11.1558 14.402 11.7221 13.7913 12.1149 13.0645C12.5077 12.3377 12.714 11.519 12.714 10.6864Z" fill="#8A92A6"/>
</svg>
