<svg width="20" height="27" viewBox="0 0 20 27" fill="none" xmlns="http://www.w3.org/2000/svg">
<path d="M3.5 6.38086C2.84 6.38086 2.28 6.83586 2.08 7.46419L0 13.9642V22.6309C0 22.9182 0.105357 23.1937 0.292893 23.3969C0.48043 23.6001 0.734784 23.7142 1 23.7142H2C2.26522 23.7142 2.51957 23.6001 2.70711 23.3969C2.89464 23.1937 3 22.9182 3 22.6309V21.5475H8.3C8.10372 20.8448 8.00266 20.115 8 19.3809C8.00161 18.0706 8.31658 16.7831 8.91419 15.644C9.51181 14.5048 10.3717 13.5528 11.41 12.8809H2L3.5 8.00586H14.5L15.68 11.83C16.293 11.8993 16.8949 12.0559 17.47 12.2959L15.92 7.46419C15.72 6.83586 15.16 6.38086 14.5 6.38086H3.5ZM14 13.9642C13.9389 13.963 13.8793 13.9851 13.8318 14.0267C13.7842 14.0683 13.7517 14.1267 13.74 14.1917L13.55 15.6217C13.25 15.7625 12.96 15.9359 12.7 16.1309L11.46 15.5892C11.35 15.5892 11.22 15.5892 11.15 15.73L10.15 17.6042C10.09 17.7234 10.11 17.8642 10.21 17.9509L11.27 18.8392C11.2302 19.199 11.2302 19.5627 11.27 19.9225L10.21 20.8109C10.1651 20.8526 10.1346 20.9097 10.1237 20.9728C10.1128 21.0358 10.1221 21.101 10.15 21.1575L11.15 23.0317C11.21 23.1725 11.34 23.1725 11.46 23.1725L12.7 22.6309C12.96 22.8259 13.24 23.01 13.55 23.14L13.74 24.57C13.76 24.7 13.86 24.7975 14 24.7975H16C16.11 24.7975 16.22 24.7 16.24 24.57L16.43 23.14C16.73 22.9992 17 22.8259 17.27 22.6309L18.5 23.1725C18.63 23.1725 18.76 23.1725 18.83 23.0317L19.83 21.1575C19.8579 21.101 19.8672 21.0358 19.8563 20.9728C19.8454 20.9097 19.8149 20.8526 19.77 20.8109L18.7 19.9225C18.72 19.7384 18.74 19.565 18.74 19.3809C18.74 19.1967 18.73 19.0234 18.7 18.8392L19.76 17.9509C19.8049 17.9091 19.8354 17.852 19.8463 17.789C19.8572 17.7259 19.8479 17.6607 19.82 17.6042L18.82 15.73C18.76 15.5892 18.63 15.5892 18.5 15.5892L17.27 16.1309C17 15.9359 16.73 15.7517 16.42 15.6217L16.23 14.1917C16.2237 14.13 16.1969 14.0729 16.1546 14.031C16.1122 13.9891 16.0573 13.9654 16 13.9642H14ZM3.5 15.0475C3.89782 15.0475 4.27936 15.2187 4.56066 15.5235C4.84196 15.8282 5 16.2415 5 16.6725C5 17.1035 4.84196 17.5168 4.56066 17.8216C4.27936 18.1263 3.89782 18.2975 3.5 18.2975C3.10218 18.2975 2.72064 18.1263 2.43934 17.8216C2.15804 17.5168 2 17.1035 2 16.6725C2 16.2415 2.15804 15.8282 2.43934 15.5235C2.72064 15.2187 3.10218 15.0475 3.5 15.0475ZM15 17.7559C15.83 17.7559 16.5 18.4817 16.5 19.3809C16.5 20.28 15.83 21.0059 15 21.0059C14.16 21.0059 13.5 20.28 13.5 19.3809C13.5 18.4817 14.17 17.7559 15 17.7559Z" fill="#8A92A6"/>
</svg>
