<svg width="14" height="25" viewBox="0 0 14 25" fill="none" xmlns="http://www.w3.org/2000/svg">
<path d="M7 2.99414C7.98891 2.99414 8.95561 3.28739 9.77785 3.83679C10.6001 4.3862 11.241 5.16709 11.6194 6.08072C11.9978 6.99435 12.0969 7.99969 11.9039 8.96959C11.711 9.9395 11.2348 10.8304 10.5355 11.5297C9.83627 12.2289 8.94536 12.7051 7.97545 12.8981C7.00555 13.091 6.00021 12.992 5.08658 12.6135C4.17295 12.2351 3.39206 11.5942 2.84265 10.772C2.29324 9.94975 2 8.98305 2 7.99414L2.005 7.77714C2.06092 6.48989 2.61161 5.27392 3.54222 4.3828C4.47284 3.49168 5.71154 2.99422 7 2.99414ZM9 14.9941C10.3261 14.9941 11.5979 15.5209 12.5355 16.4586C13.4732 17.3963 14 18.6681 14 19.9941V20.9941C14 21.5246 13.7893 22.0333 13.4142 22.4084C13.0391 22.7834 12.5304 22.9941 12 22.9941H2C1.46957 22.9941 0.960859 22.7834 0.585786 22.4084C0.210714 22.0333 0 21.5246 0 20.9941V19.9941C0 18.6681 0.526784 17.3963 1.46447 16.4586C2.40215 15.5209 3.67392 14.9941 5 14.9941H9Z" fill="#8A92A6"/>
</svg>
