<svg width="13" height="27" viewBox="0 0 13 27" fill="none" xmlns="http://www.w3.org/2000/svg">
<path d="M-3.09953e-07 19.8544L1.625 19.8544L1.625 16.3089L3.25 16.3089L3.25 19.8544L4.875 22.218L7.3125 22.218L7.3125 24.5817L4.875 24.5817L4.875 26.9453L11.375 26.9453L11.375 24.5817L8.9375 24.5817L8.9375 22.218L11.375 22.218L11.375 18.6726L13 16.3089L13 6.8544L9.75 6.8544L9.75 4.49077L12.1875 4.49077L12.1875 0.945314L4.0625 0.945314L4.0625 4.49077L6.5 4.49077L6.5 6.8544L3.25 6.8544L3.25 13.9453L1.625 13.9453L1.625 10.3999L-7.23225e-07 10.3999L-3.09953e-07 19.8544Z" fill="#8A92A6"/>
</svg>
