<svg width="18" height="19" viewBox="0 0 18 19" fill="none" xmlns="http://www.w3.org/2000/svg">
<g clip-path="url(#clip0_1215_1818)">
<path d="M9.97053 0.915039C10.2351 0.915039 10.4718 1.07974 10.5609 1.32634L11.1963 3.08764C11.4237 3.14404 11.6199 3.20164 11.7849 3.26044C11.9649 3.32464 12.1989 3.42364 12.4869 3.55744L13.9665 2.77444C14.0872 2.71016 14.2256 2.6869 14.3606 2.70817C14.4957 2.72944 14.6202 2.79408 14.7153 2.89234L16.0167 4.23784C16.1895 4.41694 16.2381 4.67884 16.1409 4.90744L15.447 6.53374C15.5616 6.74494 15.654 6.92614 15.7242 7.07734C15.7998 7.24114 15.8934 7.46914 16.005 7.76134L17.6223 8.45434C17.8653 8.55784 18.0156 8.80084 17.9994 9.06094L17.8806 10.9284C17.8725 11.0498 17.829 11.166 17.7554 11.2628C17.6818 11.3596 17.5814 11.4327 17.4666 11.4729L15.9348 12.0174C15.891 12.2286 15.8448 12.4104 15.7962 12.5628C15.7176 12.799 15.6281 13.0315 15.528 13.2594L16.2975 14.9604C16.3523 15.0799 16.3671 15.2138 16.3399 15.3423C16.3127 15.4708 16.2448 15.5872 16.1463 15.6741L14.6829 16.9809C14.5867 17.067 14.4665 17.1214 14.3383 17.1369C14.2102 17.1523 14.0804 17.128 13.9665 17.0673L12.4581 16.2681C12.2224 16.3936 11.9789 16.5039 11.7291 16.5984L11.0703 16.845L10.4853 18.465C10.4416 18.5834 10.3632 18.6859 10.2605 18.7592C10.1578 18.8326 10.0355 18.8734 9.90933 18.8763L8.19933 18.915C8.06978 18.918 7.94245 18.881 7.83471 18.809C7.72696 18.737 7.64403 18.6336 7.59723 18.5127L6.90783 16.6884C6.67267 16.6079 6.43978 16.5209 6.20943 16.4274C6.02108 16.3459 5.83557 16.258 5.65323 16.1637L3.94323 16.8945C3.8306 16.9428 3.70633 16.9572 3.58564 16.936C3.46495 16.9147 3.35308 16.8587 3.26373 16.7748L1.99833 15.5877C1.90377 15.5 1.83936 15.3846 1.81431 15.258C1.78925 15.1315 1.80484 15.0002 1.85883 14.883L2.59413 13.281C2.49669 13.0911 2.40603 12.8978 2.32233 12.7014C2.22484 12.461 2.13479 12.2176 2.05233 11.9715L0.441331 11.481C0.310381 11.4415 0.196166 11.3597 0.116422 11.2486C0.0366774 11.1374 -0.00413217 11.0031 0.000330722 10.8663L0.0633307 9.13744C0.0680108 9.02468 0.103328 8.91533 0.165488 8.82114C0.227648 8.72695 0.314299 8.65148 0.416131 8.60284L2.10633 7.79104C2.18433 7.50424 2.25333 7.27984 2.31333 7.11784C2.39825 6.90026 2.49254 6.68646 2.59593 6.47704L1.86333 4.92904C1.80731 4.81157 1.7902 4.6793 1.81448 4.55145C1.83875 4.42359 1.90316 4.3068 1.99833 4.21804L3.26193 3.02464C3.35039 2.9409 3.46123 2.8846 3.58103 2.86255C3.70083 2.84051 3.82446 2.85367 3.93693 2.90044L5.64513 3.60604C5.83353 3.48064 6.00513 3.37744 6.15993 3.29644C6.34413 3.19924 6.59133 3.09544 6.90153 2.98504L7.49553 1.32814C7.53989 1.20717 7.62027 1.10271 7.72584 1.02885C7.83141 0.954982 7.95709 0.915261 8.08593 0.915039H9.97053ZM9.02193 7.23214C7.52163 7.23214 6.30573 8.43364 6.30573 9.91684C6.30573 11.4 7.52163 12.6024 9.02193 12.6024C10.5222 12.6024 11.7372 11.4 11.7372 9.91684C11.7372 8.43364 10.5222 7.23214 9.02193 7.23214Z" fill="#8A92A6"/>
</g>
<defs>
<clipPath id="clip0_1215_1818">
<rect width="18" height="18" fill="white" transform="translate(0 0.915039)"/>
</clipPath>
</defs>
</svg>
