<svg width="24" height="25" viewBox="0 0 24 25" fill="none" xmlns="http://www.w3.org/2000/svg">
<path d="M12.75 13.7256C13.3433 13.7256 13.9234 13.9015 14.4167 14.2312C14.9101 14.5608 15.2946 15.0294 15.5216 15.5775C15.7487 16.1257 15.8081 16.7289 15.6924 17.3109C15.5766 17.8928 15.2909 18.4273 14.8713 18.8469C14.4518 19.2665 13.9172 19.5522 13.3353 19.6679C12.7533 19.7837 12.1501 19.7243 11.602 19.4972C11.0538 19.2702 10.5852 18.8856 10.2556 18.3923C9.92595 17.8989 9.75 17.3189 9.75 16.7256C9.75099 15.9302 10.0674 15.1678 10.6298 14.6054C11.1922 14.043 11.9547 13.7266 12.75 13.7256ZM12.75 11.4756C11.7117 11.4756 10.6966 11.7835 9.83326 12.3604C8.9699 12.9372 8.29699 13.7572 7.89963 14.7165C7.50227 15.6758 7.39831 16.7314 7.60088 17.7498C7.80345 18.7682 8.30347 19.7037 9.03769 20.4379C9.77192 21.1721 10.7074 21.6721 11.7258 21.8747C12.7442 22.0773 13.7998 21.9733 14.7591 21.576C15.7184 21.1786 16.5383 20.5057 17.1152 19.6423C17.6921 18.779 18 17.7639 18 16.7256C18 15.3332 17.4469 13.9978 16.4623 13.0133C15.4777 12.0287 14.1424 11.4756 12.75 11.4756Z" fill="#8A92A6"/>
<path d="M14.6895 20.7861L16.8105 18.6651L19.5 21.3531L17.3775 23.4756L14.6895 20.7861ZM7.5 20.4756H4.5V3.97559H11.379L16.5 9.09659V9.97559H18V8.47559L12 2.47559H4.5C4.10218 2.47559 3.72064 2.63362 3.43934 2.91493C3.15804 3.19623 3 3.57776 3 3.97559V20.4756C3 20.8734 3.15804 21.2549 3.43934 21.5362C3.72064 21.8176 4.10218 21.9756 4.5 21.9756H7.5V20.4756Z" fill="#8A92A6"/>
<path d="M16.5 9.97559H10.5V3.97559H12L16.5 8.47559V9.97559ZM16.5 9.97559H18V11.4756H16.5V9.97559Z" fill="#8A92A6"/>
</svg>
