<svg width="20" height="17" viewBox="0 0 20 17" fill="none" xmlns="http://www.w3.org/2000/svg">
<path d="M5 12.9248C5.28333 12.9248 5.521 12.8288 5.713 12.6368C5.905 12.4448 6.00067 12.2075 6 11.9248C5.99933 11.6421 5.90333 11.4048 5.712 11.2128C5.52067 11.0208 5.28333 10.9248 5 10.9248C4.71667 10.9248 4.47933 11.0208 4.288 11.2128C4.09667 11.4048 4.00067 11.6421 4 11.9248C3.99933 12.2075 4.09533 12.4451 4.288 12.6378C4.48067 12.8305 4.718 12.9261 5 12.9248ZM4 9.9248H6V4.9248H4V9.9248ZM8 11.9248H16V9.9248H8V11.9248ZM8 7.9248H16V5.9248H8V7.9248ZM2 16.9248C1.45 16.9248 0.979333 16.7291 0.588 16.3378C0.196667 15.9465 0.000666667 15.4755 0 14.9248V2.9248C0 2.3748 0.196 1.90414 0.588 1.5128C0.98 1.12147 1.45067 0.925471 2 0.924805H18C18.55 0.924805 19.021 1.1208 19.413 1.5128C19.805 1.9048 20.0007 2.37547 20 2.9248V14.9248C20 15.4748 19.8043 15.9458 19.413 16.3378C19.0217 16.7298 18.5507 16.9255 18 16.9248H2Z" fill="#8A92A6"/>
</svg>
