<svg width="21" height="25" viewBox="0 0 21 25" fill="none" xmlns="http://www.w3.org/2000/svg">
<mask id="mask0_1215_1753" style="mask-type:luminance" maskUnits="userSpaceOnUse" x="0" y="2" width="21" height="22">
<path d="M16.9398 11.5078L19.3898 16.0078L16.9398 16.5078V19.5078H15.4698L12.5298 19.0078L12.0398 22.5078H4.68977L3.70977 17.3173C2.20057 15.8593 1.25977 13.7958 1.25977 11.5078C1.25977 7.08931 4.76964 3.50781 9.09977 3.50781C13.4299 3.50781 16.9398 7.08931 16.9398 11.5078Z" fill="white" stroke="white" stroke-width="2" stroke-linecap="round" stroke-linejoin="round"/>
<path d="M6.64941 10.5078C6.64941 10.0134 6.7931 9.53001 7.06231 9.11889C7.33152 8.70777 7.71416 8.38733 8.16184 8.19811C8.60952 8.0089 9.10213 7.95939 9.57739 8.05585C10.0526 8.15231 10.4892 8.39042 10.8318 8.74005C11.1745 9.08968 11.4078 9.53514 11.5023 10.0201C11.5969 10.505 11.5484 11.0077 11.3629 11.4645C11.1775 11.9213 10.8635 12.3118 10.4606 12.5865C10.0577 12.8612 9.58398 13.0078 9.09941 13.0078V14.5078M9.09941 17.5078V18.0078" stroke="black" stroke-width="2" stroke-linecap="round" stroke-linejoin="round"/>
</mask>
<g mask="url(#mask0_1215_1753)">
<path d="M-1.68066 1.00781H21.8393V25.0078H-1.68066V1.00781Z" fill="#8A92A6"/>
</g>
</svg>
