<svg width="54" height="54" viewBox="0 0 54 54" fill="none" xmlns="http://www.w3.org/2000/svg">
<path fill-rule="evenodd" clip-rule="evenodd" d="M39.6415 0.0205078H14.3569C5.54565 0.0205078 0.0214844 6.25926 0.0214844 15.088V38.9113C0.0214844 47.7401 5.51648 53.9788 14.3569 53.9788H39.6386C48.479 53.9788 53.9798 47.7401 53.9798 38.9113V15.088C53.9798 6.25926 48.479 0.0205078 39.6415 0.0205078Z" fill="#C03221"/>
<path fill-rule="evenodd" clip-rule="evenodd" d="M14.7385 24.7303C20.0881 15.2428 22.763 10.5 26.9998 10.5C31.2366 10.5 33.9115 15.2428 39.2611 24.7303L39.9285 25.911C44.3743 33.7943 46.5981 37.736 44.5888 40.618C42.5795 43.5 37.6075 43.5 27.6671 43.5H26.3325C16.3921 43.5 11.4201 43.5 9.41079 40.618C7.40146 37.736 9.62529 33.7943 14.0711 25.911L14.7385 24.7303ZM26.9998 18.2917C27.3645 18.2917 27.7142 18.4365 27.9721 18.6944C28.2299 18.9523 28.3748 19.302 28.3748 19.6667V28.8333C28.3748 29.198 28.2299 29.5477 27.9721 29.8056C27.7142 30.0635 27.3645 30.2083 26.9998 30.2083C26.6351 30.2083 26.2854 30.0635 26.0275 29.8056C25.7697 29.5477 25.6248 29.198 25.6248 28.8333V19.6667C25.6248 19.302 25.7697 18.9523 26.0275 18.6944C26.2854 18.4365 26.6351 18.2917 26.9998 18.2917ZM26.9998 36.1667C27.486 36.1667 27.9523 35.9735 28.2962 35.6297C28.64 35.2859 28.8331 34.8196 28.8331 34.3333C28.8331 33.8471 28.64 33.3808 28.2962 33.037C27.9523 32.6932 27.486 32.5 26.9998 32.5C26.5136 32.5 26.0472 32.6932 25.7034 33.037C25.3596 33.3808 25.1665 33.8471 25.1665 34.3333C25.1665 34.8196 25.3596 35.2859 25.7034 35.6297C26.0472 35.9735 26.5136 36.1667 26.9998 36.1667Z" fill="white"/>
</svg>
