<svg width="54" height="54" viewBox="0 0 54 54" fill="none" xmlns="http://www.w3.org/2000/svg">
<path fill-rule="evenodd" clip-rule="evenodd" d="M39.62 0H14.3354C5.52417 0 0 6.23875 0 15.0675V38.8908C0 47.7196 5.495 53.9583 14.3354 53.9583H39.6171C48.4575 53.9583 53.9583 47.7196 53.9583 38.8908V15.0675C53.9583 6.23875 48.4575 0 39.62 0Z" fill="#FEBD01"/>
<g clip-path="url(#clip0_1108_73449)">
<path d="M13.0065 40.9935C11.0485 39.1024 9.48676 36.8403 8.41238 34.3392C7.33799 31.8382 6.77247 29.1482 6.74882 26.4262C6.72517 23.7042 7.24385 21.0048 8.27461 18.4854C9.30537 15.966 10.8276 13.6772 12.7524 11.7524C14.6772 9.82756 16.966 8.30537 19.4854 7.27461C22.0048 6.24385 24.7042 5.72517 27.4262 5.74882C30.1482 5.77247 32.8382 6.33799 35.3392 7.41238C37.8403 8.48676 40.1024 10.0485 41.9935 12.0065C45.7277 15.8728 47.794 21.0511 47.7473 26.4262C47.7006 31.8012 45.5446 36.9429 41.7437 40.7437C37.9429 44.5446 32.8012 46.7006 27.4262 46.7473C22.0511 46.794 16.8728 44.7277 13.0065 40.9935ZM39.103 38.103C42.1803 35.0256 43.9091 30.8519 43.9091 26.5C43.9091 22.148 42.1803 17.9743 39.103 14.897C36.0256 11.8196 31.8519 10.0908 27.5 10.0908C23.148 10.0908 18.9743 11.8196 15.897 14.897C12.8196 17.9743 11.0908 22.148 11.0908 26.5C11.0908 30.8519 12.8196 35.0256 15.897 38.103C18.9743 41.1803 23.148 42.9091 27.5 42.9091C31.8519 42.9091 36.0256 41.1803 39.103 38.103ZM25.45 16.25H29.55V28.55H25.45V16.25ZM25.45 32.65H29.55V36.75H25.45V32.65Z" fill="white"/>
</g>
<defs>
<clipPath id="clip0_1108_73449">
<rect width="41" height="41" fill="white" transform="translate(7 6)"/>
</clipPath>
</defs>
</svg>
