<svg width="54" height="54" viewBox="0 0 54 54" fill="none" xmlns="http://www.w3.org/2000/svg">
<path fill-rule="evenodd" clip-rule="evenodd" d="M39.6415 0.0209961H14.3569C5.54565 0.0209961 0.0214844 6.25975 0.0214844 15.0885V38.9118C0.0214844 47.7406 5.51648 53.9793 14.3569 53.9793H39.6386C48.479 53.9793 53.9798 47.7406 53.9798 38.9118V15.0885C53.9798 6.25975 48.479 0.0209961 39.6415 0.0209961Z" fill="#3A57E8"/>
<path d="M21.4528 20.2293H13.3903C12.9151 20.2293 12.4594 20.0406 12.1234 19.7046C11.7874 19.3686 11.5986 18.9128 11.5986 18.4377V10.3752C11.5986 9.89998 11.7874 9.44427 12.1234 9.10826C12.4594 8.77226 12.9151 8.5835 13.3903 8.5835C13.8655 8.5835 14.3212 8.77226 14.6572 9.10826C14.9932 9.44427 15.182 9.89998 15.182 10.3752V16.646H21.4528C21.928 16.646 22.3837 16.8348 22.7197 17.1708C23.0557 17.5068 23.2445 17.9625 23.2445 18.4377C23.2445 18.9128 23.0557 19.3686 22.7197 19.7046C22.3837 20.0406 21.928 20.2293 21.4528 20.2293Z" fill="white"/>
<path d="M43.6246 28.2918C43.1494 28.2918 42.6937 28.1031 42.3577 27.7671C42.0217 27.4311 41.8329 26.9753 41.8329 26.5002C41.8343 23.346 40.7945 20.2796 38.875 17.7767C36.9555 15.2739 34.2636 13.4746 31.217 12.658C28.1704 11.8414 24.9394 12.0532 22.0254 13.2605C19.1115 14.4679 16.6775 16.6033 15.1012 19.3353C14.8632 19.7466 14.4715 20.0464 14.0123 20.1689C13.5532 20.2914 13.0642 20.2264 12.6529 19.9884C12.2416 19.7503 11.9418 19.3586 11.8193 18.8994C11.6969 18.4403 11.7618 17.9513 11.9999 17.54C13.9711 14.1255 17.0142 11.4571 20.6569 9.94854C24.2995 8.44003 28.3382 8.17584 32.1464 9.19694C35.9545 10.218 39.3193 12.4674 41.7186 15.5959C44.1179 18.7245 45.4177 22.5575 45.4162 26.5002C45.4162 26.9753 45.2275 27.4311 44.8915 27.7671C44.5555 28.1031 44.0997 28.2918 43.6246 28.2918ZM41.6089 44.4168C41.1338 44.4168 40.678 44.2281 40.342 43.8921C40.006 43.5561 39.8173 43.1003 39.8173 42.6252V36.3543H33.5464C33.0713 36.3543 32.6155 36.1656 32.2795 35.8296C31.9435 35.4936 31.7548 35.0378 31.7548 34.5627C31.7548 34.0875 31.9435 33.6318 32.2795 33.2958C32.6155 32.9598 33.0713 32.771 33.5464 32.771H41.6089C42.0841 32.771 42.5398 32.9598 42.8758 33.2958C43.2118 33.6318 43.4006 34.0875 43.4006 34.5627V42.6252C43.4006 43.1003 43.2118 43.5561 42.8758 43.8921C42.5398 44.2281 42.0841 44.4168 41.6089 44.4168Z" fill="white"/>
<path d="M27.4997 44.4168C22.7493 44.4121 18.1949 42.5229 14.8359 39.1639C11.4769 35.8049 9.58775 31.2505 9.58301 26.5002C9.58301 26.025 9.77177 25.5693 10.1078 25.2333C10.4438 24.8973 10.8995 24.7085 11.3747 24.7085C11.8499 24.7085 12.3056 24.8973 12.6416 25.2333C12.9776 25.5693 13.1663 26.025 13.1663 26.5002C13.165 29.6543 14.2047 32.7207 16.1242 35.2236C18.0437 37.7264 20.7356 39.5258 23.7823 40.3424C26.8289 41.1589 30.0598 40.9471 32.9738 39.7398C35.8877 38.5324 38.3217 36.3971 39.898 33.665C40.0159 33.4614 40.1727 33.283 40.3596 33.1399C40.5464 32.9969 40.7596 32.8921 40.9869 32.8314C41.2143 32.7708 41.4513 32.7555 41.6846 32.7865C41.9178 32.8175 42.1427 32.8941 42.3463 33.012C42.55 33.1299 42.7284 33.2867 42.8714 33.4735C43.0144 33.6604 43.1193 33.8735 43.1799 34.1009C43.2406 34.3282 43.2558 34.5653 43.2248 34.7985C43.1939 35.0318 43.1173 35.2566 42.9994 35.4603C41.4239 38.1776 39.1637 40.4344 36.4442 42.0059C33.7246 43.5774 30.6406 44.4087 27.4997 44.4168Z" fill="white"/>
</svg>
