<svg width="54" height="54" viewBox="0 0 54 54" fill="none" xmlns="http://www.w3.org/2000/svg">
<path fill-rule="evenodd" clip-rule="evenodd" d="M39.62 0H14.3354C5.52417 0 0 6.23875 0 15.0675V38.8908C0 47.7196 5.495 53.9583 14.3354 53.9583H39.6171C48.4575 53.9583 53.9583 47.7196 53.9583 38.8908V15.0675C53.9583 6.23875 48.4575 0 39.62 0Z" fill="#6C3483"/>
<path d="M19.667 28.8333H23.3337V23.3333C23.3337 22.325 23.693 21.4621 24.4117 20.7447C25.1303 20.0272 25.9932 19.6679 27.0003 19.6667V16C24.9837 16 23.2573 16.7181 21.8212 18.1542C20.385 19.5903 19.667 21.3167 19.667 23.3333V28.8333ZM12.3337 43.5C11.3253 43.5 10.4624 43.1413 9.74499 42.4238C9.02755 41.7064 8.66821 40.8429 8.66699 39.8333V36.1667C8.66699 35.1583 9.02633 34.2954 9.74499 33.578C10.4637 32.8606 11.3265 32.5012 12.3337 32.5H14.167V23.3333C14.167 19.7583 15.4124 16.726 17.9033 14.2363C20.3942 11.7467 23.4265 10.5012 27.0003 10.5C30.5741 10.4988 33.607 11.7442 36.0992 14.2363C38.5913 16.7284 39.8361 19.7608 39.8337 23.3333V32.5H41.667C42.6753 32.5 43.5388 32.8593 44.2575 33.578C44.9762 34.2967 45.3349 35.1596 45.3337 36.1667V39.8333C45.3337 40.8417 44.9749 41.7052 44.2575 42.4238C43.54 43.1425 42.6765 43.5012 41.667 43.5H12.3337Z" fill="white"/>
</svg>
