<svg width="54" height="54" viewBox="0 0 54 54" fill="none" xmlns="http://www.w3.org/2000/svg">
<path fill-rule="evenodd" clip-rule="evenodd" d="M39.6415 0.0209961H14.3569C5.54565 0.0209961 0.0214844 6.25975 0.0214844 15.0885V38.9118C0.0214844 47.7406 5.51648 53.9793 14.3569 53.9793H39.6386C48.479 53.9793 53.9798 47.7406 53.9798 38.9118V15.0885C53.9798 6.25975 48.479 0.0209961 39.6415 0.0209961Z" fill="#01A94D"/>
<path fill-rule="evenodd" clip-rule="evenodd" d="M27.5003 46.0832C16.6845 46.0832 7.91699 37.3157 7.91699 26.4998C7.91699 15.684 16.6845 6.9165 27.5003 6.9165C38.3162 6.9165 47.0837 15.684 47.0837 26.4998C47.0837 37.3157 38.3162 46.0832 27.5003 46.0832ZM25.1954 30.6907L19.7806 25.272L17.7087 27.3439L23.8167 33.4558C24.1839 33.823 24.682 34.0292 25.2012 34.0292C25.7205 34.0292 26.2185 33.823 26.5858 33.4558L38.2418 21.8038L36.162 19.724L25.1954 30.6907Z" fill="white"/>
</svg>
