<svg width="384" height="96" viewBox="0 0 384 96" fill="none" xmlns="http://www.w3.org/2000/svg">
<path d="M187 6H197" stroke="#3A57E8" stroke-width="2" stroke-linecap="round" stroke-linejoin="round"/>
<path d="M185 10H199" stroke="#3A57E8" stroke-width="2" stroke-linecap="round" stroke-linejoin="round"/>
<path d="M199 14H185C183.895 14 183 14.8954 183 16V24C183 25.1046 183.895 26 185 26H199C200.105 26 201 25.1046 201 24V16C201 14.8954 200.105 14 199 14Z" stroke="#3A57E8" stroke-width="2" stroke-linecap="round" stroke-linejoin="round"/>
<path d="M65.812 67V40.02H73.526L80.404 59.666L87.244 40.02H94.958V67H89.182V49.52L82.836 66.924H77.896L71.588 49.52V67H65.812ZM100.064 67V40.02H111.882C113.858 40.02 115.568 40.3493 117.012 41.008C118.481 41.6667 119.609 42.604 120.394 43.82C121.179 45.0107 121.572 46.4293 121.572 48.076C121.572 49.3173 121.306 50.4193 120.774 51.382C120.267 52.3447 119.558 53.13 118.646 53.738C117.759 54.346 116.733 54.726 115.568 54.878L115.454 54.536C117.253 54.536 118.621 54.9287 119.558 55.714C120.495 56.474 121.027 57.652 121.154 59.248L121.838 67H115.948L115.454 60.16C115.378 59.1213 115.049 58.3613 114.466 57.88C113.909 57.3733 112.946 57.12 111.578 57.12H105.84V67H100.064ZM105.84 52.294H111.236C112.629 52.294 113.706 51.9773 114.466 51.344C115.251 50.6853 115.644 49.7607 115.644 48.57C115.644 47.354 115.251 46.442 114.466 45.834C113.681 45.2007 112.541 44.884 111.046 44.884H105.84V52.294ZM137.935 67.608C135.199 67.608 132.843 67.038 130.867 65.898C128.917 64.758 127.409 63.1367 126.345 61.034C125.307 58.9313 124.787 56.436 124.787 53.548C124.787 50.66 125.307 48.1647 126.345 46.062C127.409 43.934 128.917 42.3 130.867 41.16C132.843 39.9947 135.199 39.412 137.935 39.412C140.671 39.412 143.015 39.9947 144.965 41.16C146.941 42.3 148.449 43.934 149.487 46.062C150.551 48.1647 151.083 50.66 151.083 53.548C151.083 56.436 150.551 58.9313 149.487 61.034C148.449 63.1367 146.941 64.758 144.965 65.898C143.015 67.038 140.671 67.608 137.935 67.608ZM137.897 62.744C139.417 62.744 140.709 62.3893 141.773 61.68C142.863 60.9453 143.686 59.894 144.243 58.526C144.826 57.158 145.117 55.4987 145.117 53.548C145.117 51.5973 144.826 49.938 144.243 48.57C143.686 47.1767 142.863 46.1127 141.773 45.378C140.709 44.6433 139.417 44.276 137.897 44.276C136.403 44.276 135.123 44.6433 134.059 45.378C132.995 46.1127 132.172 47.1767 131.589 48.57C131.032 49.938 130.753 51.5973 130.753 53.548C130.753 55.4987 131.032 57.158 131.589 58.526C132.172 59.894 132.995 60.9453 134.059 61.68C135.149 62.3893 136.428 62.744 137.897 62.744ZM164.152 67V40.02H174.944C178.187 40.02 180.72 40.8053 182.544 42.376C184.393 43.9467 185.318 46.1 185.318 48.836C185.318 50.6347 184.9 52.2053 184.064 53.548C183.253 54.8653 182.063 55.8913 180.492 56.626C178.947 57.3353 177.097 57.69 174.944 57.69H169.928V67H164.152ZM169.928 52.826H174.602C176.122 52.826 177.3 52.4967 178.136 51.838C178.972 51.154 179.39 50.1533 179.39 48.836C179.39 47.544 178.972 46.5687 178.136 45.91C177.325 45.226 176.147 44.884 174.602 44.884H169.928V52.826ZM195.345 67V44.884H187.289V40.02H209.253V44.884H201.159V67H195.345ZM207.685 67V61.186H213.879V67H207.685ZM237.396 67.608C235.066 67.608 233.064 67.2153 231.392 66.43C229.72 65.6447 228.416 64.5427 227.478 63.124C226.541 61.7053 226.009 60.0333 225.882 58.108L231.696 57.842C231.848 58.906 232.152 59.818 232.608 60.578C233.09 61.3127 233.723 61.87 234.508 62.25C235.319 62.63 236.307 62.82 237.472 62.82C238.435 62.82 239.246 62.706 239.904 62.478C240.588 62.25 241.108 61.908 241.462 61.452C241.817 60.9707 241.994 60.388 241.994 59.704C241.994 59.0707 241.842 58.526 241.538 58.07C241.234 57.5887 240.652 57.158 239.79 56.778C238.929 56.3727 237.662 55.98 235.99 55.6C233.685 55.068 231.823 54.4727 230.404 53.814C229.011 53.1553 227.998 52.332 227.364 51.344C226.731 50.3307 226.414 49.064 226.414 47.544C226.414 45.9227 226.807 44.504 227.592 43.288C228.403 42.072 229.568 41.122 231.088 40.438C232.608 39.754 234.42 39.412 236.522 39.412C238.752 39.412 240.639 39.8047 242.184 40.59C243.73 41.3753 244.933 42.452 245.794 43.82C246.681 45.188 247.213 46.7587 247.39 48.532L241.614 48.836C241.538 47.8987 241.285 47.088 240.854 46.404C240.424 45.6947 239.841 45.15 239.106 44.77C238.372 44.39 237.485 44.2 236.446 44.2C235.129 44.2 234.09 44.4913 233.33 45.074C232.596 45.6567 232.228 46.4167 232.228 47.354C232.228 48.0127 232.393 48.57 232.722 49.026C233.077 49.4567 233.647 49.8367 234.432 50.166C235.243 50.4953 236.383 50.812 237.852 51.116C240.36 51.6227 242.336 52.2687 243.78 53.054C245.25 53.814 246.288 54.726 246.896 55.79C247.504 56.854 247.808 58.07 247.808 59.438C247.808 61.11 247.378 62.5667 246.516 63.808C245.68 65.024 244.477 65.9613 242.906 66.62C241.361 67.2787 239.524 67.608 237.396 67.608ZM248.898 67L258.626 40.02H265.466L275.194 67H269.19L267.214 61.262H256.84L254.864 67H248.898ZM258.474 56.512H265.618L262.046 46.1L258.474 56.512ZM277.781 67V40.02H285.495L292.373 59.666L299.213 40.02H306.927V67H301.151V49.52L294.805 66.924H289.865L283.557 49.52V67H277.781ZM312.033 67V40.02H317.809V67H312.033Z" fill="#3A57E8"/>
<path d="M120.1 89.32C118.873 89.32 117.82 89.1133 116.94 88.7C116.06 88.2867 115.373 87.7067 114.88 86.96C114.387 86.2133 114.107 85.3333 114.04 84.32L117.1 84.18C117.18 84.74 117.34 85.22 117.58 85.62C117.833 86.0067 118.167 86.3 118.58 86.5C119.007 86.7 119.527 86.8 120.14 86.8C120.647 86.8 121.073 86.74 121.42 86.62C121.78 86.5 122.053 86.32 122.24 86.08C122.427 85.8267 122.52 85.52 122.52 85.16C122.52 84.8267 122.44 84.54 122.28 84.3C122.12 84.0467 121.813 83.82 121.36 83.62C120.907 83.4067 120.24 83.2 119.36 83C118.147 82.72 117.167 82.4067 116.42 82.06C115.687 81.7133 115.153 81.28 114.82 80.76C114.487 80.2267 114.32 79.56 114.32 78.76C114.32 77.9067 114.527 77.16 114.94 76.52C115.367 75.88 115.98 75.38 116.78 75.02C117.58 74.66 118.533 74.48 119.64 74.48C120.813 74.48 121.807 74.6867 122.62 75.1C123.433 75.5133 124.067 76.08 124.52 76.8C124.987 77.52 125.267 78.3467 125.36 79.28L122.32 79.44C122.28 78.9467 122.147 78.52 121.92 78.16C121.693 77.7867 121.387 77.5 121 77.3C120.613 77.1 120.147 77 119.6 77C118.907 77 118.36 77.1533 117.96 77.46C117.573 77.7667 117.38 78.1667 117.38 78.66C117.38 79.0067 117.467 79.3 117.64 79.54C117.827 79.7667 118.127 79.9667 118.54 80.14C118.967 80.3133 119.567 80.48 120.34 80.64C121.66 80.9067 122.7 81.2467 123.46 81.66C124.233 82.06 124.78 82.54 125.1 83.1C125.42 83.66 125.58 84.3 125.58 85.02C125.58 85.9 125.353 86.6667 124.9 87.32C124.46 87.96 123.827 88.4533 123 88.8C122.187 89.1467 121.22 89.32 120.1 89.32ZM132.89 89.24C131.797 89.24 130.843 89.0133 130.03 88.56C129.23 88.0933 128.603 87.44 128.15 86.6C127.71 85.76 127.49 84.7733 127.49 83.64C127.49 82.5067 127.71 81.5267 128.15 80.7C128.603 79.86 129.23 79.2067 130.03 78.74C130.83 78.2733 131.777 78.04 132.87 78.04C133.937 78.04 134.863 78.2733 135.65 78.74C136.437 79.2067 137.043 79.8733 137.47 80.74C137.91 81.6067 138.13 82.64 138.13 83.84V84.44H130.59C130.63 85.2933 130.857 85.9267 131.27 86.34C131.697 86.7533 132.257 86.96 132.95 86.96C133.457 86.96 133.877 86.8533 134.21 86.64C134.557 86.4267 134.803 86.1 134.95 85.66L137.97 85.84C137.69 86.9067 137.097 87.74 136.19 88.34C135.283 88.94 134.183 89.24 132.89 89.24ZM130.59 82.6H135.05C135.01 81.8133 134.79 81.2267 134.39 80.84C134.003 80.4533 133.497 80.26 132.87 80.26C132.243 80.26 131.723 80.4667 131.31 80.88C130.91 81.28 130.67 81.8533 130.59 82.6ZM142.882 89C142.002 89 141.315 88.78 140.822 88.34C140.328 87.9 140.082 87.1867 140.082 86.2V74.8H143.082V85.88C143.082 86.2 143.155 86.4267 143.302 86.56C143.448 86.6933 143.662 86.76 143.942 86.76H144.662V89H142.882ZM149.492 89.24C148.386 89.24 147.479 88.9867 146.772 88.48C146.079 87.96 145.732 87.24 145.732 86.32C145.732 85.3733 146.026 84.6467 146.612 84.14C147.212 83.62 148.092 83.24 149.252 83L152.712 82.32C152.712 81.6267 152.552 81.1067 152.232 80.76C151.926 80.4 151.479 80.22 150.892 80.22C150.319 80.22 149.872 80.3533 149.552 80.62C149.232 80.8733 149.026 81.2533 148.932 81.76L145.912 81.62C146.112 80.4467 146.639 79.56 147.492 78.96C148.359 78.3467 149.492 78.04 150.892 78.04C152.492 78.04 153.692 78.42 154.492 79.18C155.306 79.94 155.712 81.0533 155.712 82.52V86.18C155.712 86.4867 155.759 86.6933 155.852 86.8C155.959 86.8933 156.112 86.94 156.312 86.94H156.612V89C156.519 89.0267 156.366 89.0533 156.152 89.08C155.952 89.1067 155.752 89.12 155.552 89.12C155.126 89.12 154.726 89.0467 154.352 88.9C153.992 88.7533 153.699 88.5067 153.472 88.16C153.246 87.8 153.132 87.2933 153.132 86.64L153.392 86.84C153.259 87.32 153.019 87.74 152.672 88.1C152.339 88.46 151.899 88.74 151.352 88.94C150.819 89.14 150.199 89.24 149.492 89.24ZM150.212 87.18C150.706 87.18 151.139 87.0867 151.512 86.9C151.886 86.7 152.179 86.4133 152.392 86.04C152.606 85.6667 152.712 85.2267 152.712 84.72V84.2L150.272 84.72C149.792 84.8133 149.426 84.9733 149.172 85.2C148.932 85.4133 148.812 85.6933 148.812 86.04C148.812 86.4 148.932 86.68 149.172 86.88C149.412 87.08 149.759 87.18 150.212 87.18ZM158.187 89V78.28H160.887L160.987 80.86L160.707 80.74C160.854 80.1667 161.074 79.68 161.367 79.28C161.674 78.88 162.041 78.5733 162.467 78.36C162.894 78.1467 163.361 78.04 163.867 78.04C164.761 78.04 165.481 78.3 166.027 78.82C166.587 79.34 166.947 80.04 167.107 80.92L166.727 80.94C166.847 80.3133 167.054 79.7867 167.347 79.36C167.654 78.92 168.027 78.5933 168.467 78.38C168.907 78.1533 169.401 78.04 169.947 78.04C170.694 78.04 171.334 78.1933 171.867 78.5C172.401 78.8067 172.814 79.2667 173.107 79.88C173.401 80.48 173.547 81.22 173.547 82.1V89H170.547V82.94C170.547 82.1 170.421 81.4733 170.167 81.06C169.914 80.6333 169.501 80.42 168.927 80.42C168.567 80.42 168.261 80.52 168.007 80.72C167.754 80.92 167.554 81.2133 167.407 81.6C167.274 81.9733 167.207 82.4333 167.207 82.98V89H164.507V82.98C164.507 82.1533 164.387 81.52 164.147 81.08C163.907 80.64 163.494 80.42 162.907 80.42C162.547 80.42 162.234 80.52 161.967 80.72C161.714 80.92 161.521 81.2133 161.387 81.6C161.254 81.9867 161.187 82.4467 161.187 82.98V89H158.187ZM179.121 89.24C178.014 89.24 177.108 88.9867 176.401 88.48C175.708 87.96 175.361 87.24 175.361 86.32C175.361 85.3733 175.654 84.6467 176.241 84.14C176.841 83.62 177.721 83.24 178.881 83L182.341 82.32C182.341 81.6267 182.181 81.1067 181.861 80.76C181.554 80.4 181.108 80.22 180.521 80.22C179.948 80.22 179.501 80.3533 179.181 80.62C178.861 80.8733 178.654 81.2533 178.561 81.76L175.541 81.62C175.741 80.4467 176.268 79.56 177.121 78.96C177.988 78.3467 179.121 78.04 180.521 78.04C182.121 78.04 183.321 78.42 184.121 79.18C184.934 79.94 185.341 81.0533 185.341 82.52V86.18C185.341 86.4867 185.388 86.6933 185.481 86.8C185.588 86.8933 185.741 86.94 185.941 86.94H186.241V89C186.148 89.0267 185.994 89.0533 185.781 89.08C185.581 89.1067 185.381 89.12 185.181 89.12C184.754 89.12 184.354 89.0467 183.981 88.9C183.621 88.7533 183.328 88.5067 183.101 88.16C182.874 87.8 182.761 87.2933 182.761 86.64L183.021 86.84C182.888 87.32 182.648 87.74 182.301 88.1C181.968 88.46 181.528 88.74 180.981 88.94C180.448 89.14 179.828 89.24 179.121 89.24ZM179.841 87.18C180.334 87.18 180.768 87.0867 181.141 86.9C181.514 86.7 181.808 86.4133 182.021 86.04C182.234 85.6667 182.341 85.2267 182.341 84.72V84.2L179.901 84.72C179.421 84.8133 179.054 84.9733 178.801 85.2C178.561 85.4133 178.441 85.6933 178.441 86.04C178.441 86.4 178.561 86.68 178.801 86.88C179.041 87.08 179.388 87.18 179.841 87.18ZM191.67 89C190.563 89 189.75 88.7467 189.23 88.24C188.71 87.72 188.45 86.9 188.45 85.78V75.76H191.45V85.42C191.45 85.94 191.557 86.2933 191.77 86.48C191.997 86.6667 192.33 86.76 192.77 86.76H194.27V89H191.67ZM186.73 80.52V78.28H194.27V80.52H186.73ZM200.847 89V74.8H205.747C208.054 74.8 209.827 75.42 211.067 76.66C212.307 77.8867 212.927 79.64 212.927 81.92C212.927 84.1867 212.314 85.9333 211.087 87.16C209.874 88.3867 208.134 89 205.867 89H200.847ZM203.887 86.44H205.747C207.121 86.44 208.134 86.0733 208.787 85.34C209.454 84.5933 209.787 83.4467 209.787 81.9C209.787 80.3533 209.454 79.2133 208.787 78.48C208.134 77.7333 207.121 77.36 205.747 77.36H203.887V86.44ZM218.32 89.24C217.214 89.24 216.307 88.9867 215.6 88.48C214.907 87.96 214.56 87.24 214.56 86.32C214.56 85.3733 214.854 84.6467 215.44 84.14C216.04 83.62 216.92 83.24 218.08 83L221.54 82.32C221.54 81.6267 221.38 81.1067 221.06 80.76C220.754 80.4 220.307 80.22 219.72 80.22C219.147 80.22 218.7 80.3533 218.38 80.62C218.06 80.8733 217.854 81.2533 217.76 81.76L214.74 81.62C214.94 80.4467 215.467 79.56 216.32 78.96C217.187 78.3467 218.32 78.04 219.72 78.04C221.32 78.04 222.52 78.42 223.32 79.18C224.134 79.94 224.54 81.0533 224.54 82.52V86.18C224.54 86.4867 224.587 86.6933 224.68 86.8C224.787 86.8933 224.94 86.94 225.14 86.94H225.44V89C225.347 89.0267 225.194 89.0533 224.98 89.08C224.78 89.1067 224.58 89.12 224.38 89.12C223.954 89.12 223.554 89.0467 223.18 88.9C222.82 88.7533 222.527 88.5067 222.3 88.16C222.074 87.8 221.96 87.2933 221.96 86.64L222.22 86.84C222.087 87.32 221.847 87.74 221.5 88.1C221.167 88.46 220.727 88.74 220.18 88.94C219.647 89.14 219.027 89.24 218.32 89.24ZM219.04 87.18C219.534 87.18 219.967 87.0867 220.34 86.9C220.714 86.7 221.007 86.4133 221.22 86.04C221.434 85.6667 221.54 85.2267 221.54 84.72V84.2L219.1 84.72C218.62 84.8133 218.254 84.9733 218 85.2C217.76 85.4133 217.64 85.6933 217.64 86.04C217.64 86.4 217.76 86.68 218 86.88C218.24 87.08 218.587 87.18 219.04 87.18ZM230.869 89C229.763 89 228.949 88.7467 228.429 88.24C227.909 87.72 227.649 86.9 227.649 85.78V75.76H230.649V85.42C230.649 85.94 230.756 86.2933 230.969 86.48C231.196 86.6667 231.529 86.76 231.969 86.76H233.469V89H230.869ZM225.929 80.52V78.28H233.469V80.52H225.929ZM238.359 89.24C237.253 89.24 236.346 88.9867 235.639 88.48C234.946 87.96 234.599 87.24 234.599 86.32C234.599 85.3733 234.893 84.6467 235.479 84.14C236.079 83.62 236.959 83.24 238.119 83L241.579 82.32C241.579 81.6267 241.419 81.1067 241.099 80.76C240.793 80.4 240.346 80.22 239.759 80.22C239.186 80.22 238.739 80.3533 238.419 80.62C238.099 80.8733 237.893 81.2533 237.799 81.76L234.779 81.62C234.979 80.4467 235.506 79.56 236.359 78.96C237.226 78.3467 238.359 78.04 239.759 78.04C241.359 78.04 242.559 78.42 243.359 79.18C244.173 79.94 244.579 81.0533 244.579 82.52V86.18C244.579 86.4867 244.626 86.6933 244.719 86.8C244.826 86.8933 244.979 86.94 245.179 86.94H245.479V89C245.386 89.0267 245.233 89.0533 245.019 89.08C244.819 89.1067 244.619 89.12 244.419 89.12C243.993 89.12 243.593 89.0467 243.219 88.9C242.859 88.7533 242.566 88.5067 242.339 88.16C242.113 87.8 241.999 87.2933 241.999 86.64L242.259 86.84C242.126 87.32 241.886 87.74 241.539 88.1C241.206 88.46 240.766 88.74 240.219 88.94C239.686 89.14 239.066 89.24 238.359 89.24ZM239.079 87.18C239.573 87.18 240.006 87.0867 240.379 86.9C240.753 86.7 241.046 86.4133 241.259 86.04C241.473 85.6667 241.579 85.2267 241.579 84.72V84.2L239.139 84.72C238.659 84.8133 238.293 84.9733 238.039 85.2C237.799 85.4133 237.679 85.6933 237.679 86.04C237.679 86.4 237.799 86.68 238.039 86.88C238.279 87.08 238.626 87.18 239.079 87.18ZM247.054 89V78.28H249.754L249.874 81.42L249.494 81.32C249.601 80.52 249.814 79.88 250.134 79.4C250.468 78.92 250.881 78.5733 251.374 78.36C251.868 78.1467 252.408 78.04 252.994 78.04C253.768 78.04 254.421 78.2067 254.954 78.54C255.501 78.8733 255.914 79.3467 256.194 79.96C256.488 80.56 256.634 81.2733 256.634 82.1V89H253.634V83.1C253.634 82.5267 253.588 82.04 253.494 81.64C253.401 81.24 253.234 80.94 252.994 80.74C252.754 80.5267 252.421 80.42 251.994 80.42C251.368 80.42 250.888 80.6533 250.554 81.12C250.221 81.5733 250.054 82.2333 250.054 83.1V89H247.054ZM263.827 92.24C262.8 92.24 261.94 92.1133 261.247 91.86C260.567 91.6067 260.02 91.2533 259.607 90.8C259.207 90.3467 258.927 89.8267 258.767 89.24L261.847 89.02C261.954 89.3667 262.154 89.64 262.447 89.84C262.754 90.04 263.214 90.14 263.827 90.14C264.547 90.14 265.094 89.9667 265.467 89.62C265.854 89.2867 266.047 88.7467 266.047 88V86.86C265.794 87.3533 265.387 87.7533 264.827 88.06C264.267 88.3533 263.64 88.5 262.947 88.5C262.067 88.5 261.287 88.2867 260.607 87.86C259.927 87.42 259.394 86.8133 259.007 86.04C258.634 85.2533 258.447 84.3333 258.447 83.28C258.447 82.2533 258.634 81.3467 259.007 80.56C259.394 79.7733 259.92 79.16 260.587 78.72C261.267 78.2667 262.04 78.04 262.907 78.04C263.694 78.04 264.354 78.2133 264.887 78.56C265.434 78.9067 265.847 79.3667 266.127 79.94V78.28H269.067V87.94C269.067 88.9 268.847 89.6933 268.407 90.32C267.967 90.96 267.354 91.44 266.567 91.76C265.78 92.08 264.867 92.24 263.827 92.24ZM263.807 86.28C264.5 86.28 265.047 86.0133 265.447 85.48C265.86 84.9467 266.067 84.2067 266.067 83.26C266.067 82.6333 265.974 82.0933 265.787 81.64C265.614 81.1867 265.354 80.84 265.007 80.6C264.674 80.36 264.274 80.24 263.807 80.24C263.087 80.24 262.527 80.5133 262.127 81.06C261.727 81.6067 261.527 82.34 261.527 83.26C261.527 84.1933 261.734 84.9333 262.147 85.48C262.56 86.0133 263.114 86.28 263.807 86.28Z" fill="#3A57E8"/>
</svg>
